<?xml version="1.0" encoding="UTF-8" standalone="no"?>
<svg xmlns="http://www.w3.org/2000/svg" version="1.0" width="512.000000pt" height="512.000000pt" viewBox="0 0 512.000000 512.000000" preserveAspectRatio="xMidYMid meet">
  <g transform="translate(0.000000,512.000000) scale(0.100000,-0.100000)" fill="#000000" stroke="none">
    <path d="M2493 3910 c-51 -23 -79 -65 -88 -131 l-7 -48 -481 -3 c-473 -3 -483 -3 -522 -25 -48 -26 -106 -85 -131 -133 -12 -24 -19 -65 -22 -132 l-4 -98 -87 0 c-61 0 -93 -4 -107 -15 -29 -22 -375 -22 -409 1 -21 13 -56 15 -237 12 -201 -3 -215 -4 -253 -26 -122 -70 -126 -239 -7 -310 47 -27 49 -27 260 -30 181 -3 217 -1 237 12 34 23 380 23 409 1 14 -11 46 -15 108 -15 l88 0 0 -410 0 -410 -88 0 c-62 0 -94 -4 -108 -15 -29 -22 -375 -22 -409 1 -20 13 -56 15 -237 12 -211 -3 -213 -3 -260 -30 -98 -58 -118 -189 -40 -271 55 -59 69 -62 300 -65 182 -3 216 -1 237 12 34 23 380 23 409 1 14 -11 46 -15 107 -15 l87 0 4 -97 c3 -68 10 -109 22 -133 30 -59 96 -119 154 -140 50 -19 78 -20 516 -20 l464 0 7 -49 c9 -67 37 -109 90 -132 43 -19 73 -19 1259 -17 l1215 3 28 21 c15 11 38 36 51 54 l22 33 0 1257 0 1257 -22 33 c-13 18 -36 43 -51 54 l-28 21 -1217 2 c-1183 3 -1218 2 -1259 -17z m-1943 -755 l0 -75 -162 0 c-179 0 -206 7 -223 53 -12 36 10 78 45 88 14 4 96 7 183 8 l157 1 0 -75z m0 -1190 l0 -75 -157 1 c-87 1 -169 4 -183 8 -35 10 -57 52 -45 88 17 46 44 53 223 53 l162 0 0 -75z"></path>
  </g>
</svg>
